<svg width="26" height="16" viewBox="0 0 26 16" fill="none" xmlns="http://www.w3.org/2000/svg">
<path d="M2.47 7.96774C2.47 5.24277 4.277 3.02774 6.5 3.02774H11.7V0H6.5C2.912 0 0 3.56955 0 7.96774C0 12.3659 2.912 15.9355 6.5 15.9355H11.7V12.9077H6.5C4.277 12.9077 2.47 10.6927 2.47 7.96774ZM7.8 9.56129H18.2V6.37419H7.8V9.56129ZM19.5 0H14.3V3.02774H19.5C21.723 3.02774 23.53 5.24277 23.53 7.96774C23.53 10.6927 21.723 12.9077 19.5 12.9077H14.3V15.9355H19.5C23.088 15.9355 26 12.3659 26 7.96774C26 3.56955 23.088 0 19.5 0Z" fill="white"/>
</svg>
